<?xml version="1.0" encoding="UTF-8" standalone="no"?>
<!-- Created with Inkscape (http://www.inkscape.org/) -->

<svg
   width="120mm"
   height="120mm"
   viewBox="-60 -60 120 120"
   sodipodi:docname="logo-color.svg"
   version="1.1"
   id="svg60"
   inkscape:version="1.1.2 (0a00cf5339, 2022-02-04, custom)"
   inkscape:export-filename="/home/ewen/projects/fsorg/branding/logo-color.png"
   inkscape:export-xdpi="96"
   inkscape:export-ydpi="96"
   xmlns:inkscape="http://www.inkscape.org/namespaces/inkscape"
   xmlns:sodipodi="http://sodipodi.sourceforge.net/DTD/sodipodi-0.dtd"
   xmlns="http://www.w3.org/2000/svg"
   xmlns:svg="http://www.w3.org/2000/svg"
   xmlns:rdf="http://www.w3.org/1999/02/22-rdf-syntax-ns#"
   xmlns:cc="http://creativecommons.org/ns#"
   xmlns:dc="http://purl.org/dc/elements/1.1/">
  <defs
     id="defs62" />
  <sodipodi:namedview
     pagecolor="#ffffff"
     bordercolor="#666666"
     borderopacity="1.0"
     inkscape:pageopacity="0"
     inkscape:pageshadow="2"
     inkscape:zoom="1"
     inkscape:cx="170"
     inkscape:cy="208.5"
     inkscape:document-units="mm"
     inkscape:current-layer="g6187"
     showgrid="false"
     units="mm"
     showguides="true"
     inkscape:guide-bbox="true"
     inkscape:snap-global="true"
     inkscape:snap-bbox="true"
     inkscape:snap-bbox-midpoints="true"
     inkscape:window-width="1920"
     inkscape:window-height="1080"
     inkscape:window-x="0"
     inkscape:window-y="0"
     inkscape:window-maximized="0"
     inkscape:bbox-paths="true"
     inkscape:bbox-nodes="true"
     inkscape:snap-bbox-edge-midpoints="true"
     inkscape:snap-grids="true"
     id="namedview50"
     inkscape:pagecheckerboard="true">
    <sodipodi:guide
       orientation="1,0"
       position="226.771653543,226.771653543"
       id="guide2827" />
    <sodipodi:guide
       orientation="0,1"
       position="226.771653543,226.771653543"
       id="guide2829" />
    <inkscape:grid
       type="xygrid"
       id="grid3072"
       empspacing="10"
       visible="true"
       enabled="true"
       snapvisiblegridlinesonly="true"
       units="mm"
       dotted="false"
       spacingx="0.1mm"
       spacingy="0.1mm" />
  </sodipodi:namedview>
  <metadata
     id="metadata2822">
    <rdf:RDF>
      <cc:Work
         rdf:about="">
        <dc:format>image/svg+xml</dc:format>
        <dc:type
           rdf:resource="http://purl.org/dc/dcmitype/StillImage" />
      </cc:Work>
    </rdf:RDF>
  </metadata>
  <g
     inkscape:label="Layer 1"
     inkscape:groupmode="layer"
     id="Template"
     style="display:none;opacity:0.200392;fill:none;stroke:#000000;stroke-width:0.05"
     sodipodi:insensitive="true">
    <path
       style="fill:none;stroke:#000000;stroke-width:0.264583px;stroke-linecap:butt;stroke-linejoin:miter;stroke-opacity:1"
       d="m -39.408185,20.260329 c -0.287104,-3.699454 0.705192,-7.331157 0.858402,-11.0069018 0.159976,-3.8381066 -0.111537,-7.696012 0,-11.535939 0.126372,-4.3506866 0.67929,-8.6074012 1.185263,-12.9154952 0.09361,-0.797076 0.14042,-1.598956 0.21063,-2.398432 0.139498,-0.790855 0.306625,-1.577332 0.418495,-2.372566 0.195715,-1.391264 0.2224,-2.537299 0.81513,-3.817371 0.704851,-1.522209 1.915604,-2.310361 3.58069,-2.310361 0.834861,0 1.459272,-0.04005 2.197354,0.345218 1.470745,0.767723 3.869372,2.962013 4.63663,4.447662 0.188849,0.36567 0.230499,0.792713 0.396875,1.169141 1.079669,2.442757 1.547302,4.880789 1.547302,7.534775"
       id="path409" />
    <path
       style="fill:none;stroke:#000000;stroke-width:0.264583px;stroke-linecap:butt;stroke-linejoin:miter;stroke-opacity:1"
       d="m -44.441652,-0.09955382 c 5.125254,0 10.250508,0 15.375761,0 1.798289,0 3.685397,0.15780544 5.47918,0 4.754755,-0.41829566 9.577599,-0.27215306 14.3635699,-0.27215306"
       id="path413" />
    <path
       style="fill:none;stroke:#000000;stroke-width:0.264583px;stroke-linecap:butt;stroke-linejoin:miter;stroke-opacity:1"
       d="m -23.018974,0.1511971 c -0.895387,-0.09864725 -1.435205,0.39276072 -1.700524,1.1887147 -0.04184,0.1255024 0.03914,0.2705073 0,0.396875 -0.09419,0.3041015 -0.323131,1.2313734 -0.132292,1.5902913 0.09607,0.180684 0.173784,0.1772788 0.251809,0.2609559 0.114419,0.1227058 0.181743,0.4971971 0.253175,0.655791 0.324051,0.7194655 1.289246,1.6240495 1.980475,2.0334684 0.479033,0.2837338 0.133059,0.030615 0.62199,0.1322916 0.265383,0.055187 0.493797,0.2333969 0.757738,0.2951189 0.437046,0.1022086 0.921718,0.1855153 1.357918,0.2645834 0.248645,0.045072 0.576358,-0.041577 0.827098,0 0.443929,0.073612 0.885018,0.2014934 1.329426,0.2645833 0.351197,0.049858 0.713044,-0.050453 1.064154,0 0.553251,0.079505 1.09098,0.3652943 1.637747,0.4428993 0.176622,0.025082 0.359314,-0.029948 0.535175,0 0.6613,0.1126199 1.162039,0.5745638 1.742213,0.8551253 0.846251,0.4092311 1.977199,0.7683738 2.6775008,1.4332691 0.6484726,0.6156857 0.8567341,1.4594917 1.265129,2.2110327 0.079108,0.145574 0.2226892,0.249936 0.2992305,0.396875 0.6639428,1.274591 -0.03175,3.361772 -0.8349059,4.419354 -0.5496851,0.723815 -1.6498784,0.816576 -2.4311244,1.199642 -1.515313,0.743 -3.207202,1.380919 -4.91782,1.532006 -0.989555,0.0874 -2.011318,0.03481 -2.999849,0.136134 -1.747075,0.17907 -4.384828,0.568719 -5.970479,-0.224105 -0.08013,-0.04007 -0.332528,-0.07419 -0.388985,-0.130654 -0.04247,-0.04247 -0.546465,-1.097857 -0.563737,-1.145617 -0.04499,-0.124407 0.03705,-0.269877 0,-0.396875 -0.04846,-0.166102 -0.240692,-0.262675 -0.295407,-0.426823 -0.08698,-0.26095 -0.123947,-0.59699 -0.123947,-0.875747"
       id="path415" />
    <path
       style="fill:none;stroke:#000000;stroke-width:0.264583px;stroke-linecap:butt;stroke-linejoin:miter;stroke-opacity:1"
       d="m -13.535048,-2.874689 c -0.470024,-2.5448709 -0.438142,-5.7678901 1.123146,-7.980169 1.236784,-1.752465 3.264273,-2.542646 5.1901645,-3.201832 1.0545444,-0.360944 0.5126169,-0.378634 1.6666209,-0.66453 1.0688876,-0.264808 4.3819921,-0.376375 5.47935676,-0.04061 0.78406889,0.2399 1.78816794,0.642614 2.47984694,1.066535 1.0427917,0.639114 1.6752014,1.529226 2.4576511,2.421499 0.9246049,1.054383 1.9149985,2.0712372 2.5839499,3.3335854 0.674452,1.2727305 1.4036119,5.9118526 1.0605452,7.39853575 -0.054904,0.2379292 -0.2185829,0.43748324 -0.3072315,0.66500638 C 7.615114,1.6219285 7.2077403,3.0208891 6.2912528,4.3680998 5.5430429,5.4679462 4.8571635,6.5096081 3.7619817,7.2952222 3.5111673,7.4751388 3.2003983,7.5584482 2.9465597,7.734076 2.1984027,8.2517147 1.9449107,8.5530249 0.98477746,8.8728797 -1.1247507,9.5756368 -3.1731787,9.6613089 -5.3208783,9.0765797 -5.983395,8.8962053 -6.6641652,8.7417151 -7.3098702,8.5056274 -7.6428801,8.3838715 -8.1886811,7.9740477 -8.5040248,7.9740477"
       id="path417" />
    <path
       style="fill:none;stroke:#000000;stroke-width:0.264583px;stroke-linecap:butt;stroke-linejoin:miter;stroke-opacity:1"
       d="m 9.5173808,-1.1942832 c 3.3456222,0.30171229 6.6845792,0.045911 10.0219642,-0.1935904 1.035561,-0.074313 2.058696,-0.038333 3.09223,-0.1322916 1.428097,-0.1298258 2.924498,0 4.360683,0"
       id="path419" />
    <path
       style="fill:none;stroke:#000000;stroke-width:0.264583px;stroke-linecap:butt;stroke-linejoin:miter;stroke-opacity:1"
       d="m 8.3890335,4.1527448 c 0.5020019,1.0849134 0.3525758,2.2917864 0.6181963,3.4190913 0.070803,0.3004926 0.2503911,0.5683303 0.3201908,0.869061 0.3728085,1.6061979 0.096123,3.3577899 0.2656972,4.9815669 0.205441,1.967198 0.2965027,3.902977 0.2965027,5.896102"
       id="path421" />
    <path
       style="fill:none;stroke:#000000;stroke-width:0.264583px;stroke-linecap:butt;stroke-linejoin:miter;stroke-opacity:1"
       d="m 20.230558,-3.3351857 c -0.03344,-2.734855 -0.672197,-5.9244811 2.183694,-7.4657213 0.781195,-0.42159 1.761728,-0.86583 2.627826,-1.045371 0.233852,-0.04848 0.479091,0.02622 0.71647,0 0.286957,-0.03171 0.561835,-0.140113 0.848664,-0.172967 2.956944,-0.338682 7.335428,0.628008 9.700231,2.458276 1.954789,1.5129324 2.372434,4.3712023 2.595959,6.6530536 0.116057,1.1847698 0.295416,0.8228701 0.1835,1.97981095 C 38.96895,0.29121195 38.247791,1.6454394 37.626066,2.6758115 35.625514,5.9912867 29.885148,10.520482 25.727679,9.9003282 24.696463,9.7465047 23.65429,9.4179372 22.843358,8.7957272 22.831426,8.7865726 22.321293,8.5383087 22.311795,8.5287546 22.17096,8.3870491 22.143231,8.1660003 22.044756,7.9921664 21.458445,6.9571826 21.210554,5.8495812 20.750433,4.7685016 20.727652,4.7149764 20.473856,4.2832399 20.454301,4.2050185 20.319636,3.666356 20.232331,3.1418645 20.055103,2.6101764 c -0.09368,-0.2810352 0,-0.7242625 0,-1.0235539"
       id="path423" />
    <path
       style="fill:none;stroke:#000000;stroke-width:0.264583px;stroke-linecap:butt;stroke-linejoin:miter;stroke-opacity:1"
       d="m 31.010683,-11.808663 c 0.05967,-2.105051 1.258967,-4.195288 2.871013,-5.493064 0.580342,-0.467204 0.376846,-0.173183 1.002045,-0.42885 0.489072,-0.199996 0.904653,-0.529167 1.449081,-0.529167"
       id="path425" />
    <path
       style="fill:none;stroke:#000000;stroke-width:0.264583px;stroke-linecap:butt;stroke-linejoin:miter;stroke-opacity:1"
       d="m 27.686151,10.055721 c -0.323934,0.794546 0.0075,1.674624 -0.132291,2.482736 -0.02622,0.15158 -0.135784,0.279762 -0.16605,0.430585 -0.0072,0.03604 -0.241541,2.927591 -0.132292,3.129704 0.149699,0.276947 0.125024,0.52025 0.125024,0.855445"
       id="path427" />
    <path
       style="fill:none;stroke:#000000;stroke-width:0.264583px;stroke-linecap:butt;stroke-linejoin:miter;stroke-opacity:1"
       d="m 16.021628,18.005 c 1.64266,-0.580403 3.398562,-0.837727 5.108231,-1.074182 0.262088,-0.03625 0.537067,0.06417 0.79375,0 0.714245,-0.178562 1.399555,-0.297873 2.145426,-0.42382 0.678813,-0.114623 1.448457,0.158774 2.116667,0 1.583126,-0.376169 3.625734,-0.278263 5.226119,-0.03263 0.441954,0.06783 0.914424,-0.06408 1.356966,0 1.697447,0.245801 -1.186281,0.03182 0.929973,0.266957 1.088747,0.120973 2.902241,0.460486 3.884253,1.069144 0.693726,0.42998 0.936259,1.157968 1.079246,1.875451 0.01926,0.0967 0.08819,0.17639 0.132291,0.264584 0.0441,0.143891 0.105437,0.283593 0.132292,0.431675 0.06389,0.352322 -0.05351,0.737325 0,1.091552 0.07361,0.487265 0.235061,1.028822 0.132292,1.537198 -0.04807,0.237796 -0.230482,0.430723 -0.299739,0.663233 -0.148373,0.498107 -0.179475,1.073055 -0.431993,1.540288 -0.648661,1.200216 -1.456796,2.361438 -2.553994,3.262884 -0.933601,0.767035 -1.725205,0.894297 -2.817786,1.238216 -2.544045,0.800803 -4.628221,0.736017 -7.247895,0.736017 -1.808311,0 -3.592753,0.0298 -5.38076,-0.167536 -0.395893,-0.0437 -0.799073,0.04434 -1.194895,0 -0.957159,-0.107231 -2.021089,-0.271362 -2.947948,-0.536305 -0.820756,-0.234614 -1.68548,-0.203587 -2.43404,-0.704221 -0.153791,-0.102854 -0.187997,-0.314894 -0.267134,-0.394025 -0.173868,-0.173858 -0.119684,0.286231 -0.259191,-0.132292 -0.181612,-0.544835 -0.275817,-1.119478 -0.396875,-1.724758 -0.06745,-0.337259 0.07981,-0.724162 0,-1.058333 -0.202758,-0.84895 -0.344548,-2.183797 -0.166026,-3.076403 0.105908,-0.529537 0.841809,-1.945442 1.152642,-2.406489 0.637169,-0.945086 1.791811,-1.340638 2.208128,-2.246205 z"
       id="path429" />
  </g>
  <g
     inkscape:groupmode="layer"
     id="layer1"
     inkscape:label="Layer 2"
     style="display:inline">
    <g
       id="g4663"
       transform="translate(-2.108137,-3.6873395)"
       style="stroke-width:1.2;stroke-miterlimit:4;stroke-dasharray:none">
      <g
         id="g6187"
         transform="translate(-1.005616,-0.65940601)">
        <rect
           style="fill:#1b4264;fill-opacity:1;stroke:none;stroke-width:4.05841"
           id="rect3177"
           width="121.21803"
           height="122.25276"
           x="-57.184536"
           y="-56.558594"
           ry="0" />
        <path
           style="fill:none;stroke:#42f6bf;stroke-width:4.1;stroke-linecap:butt;stroke-linejoin:miter;stroke-miterlimit:4;stroke-dasharray:none;stroke-opacity:1"
           d="M -44.441652,-0.09955382 H -9.0631052"
           id="path580">
          <rect
             style="fill:#1b4264;fill-opacity:0;stroke:#42f6bf;stroke-width:4.1;stroke-miterlimit:4;stroke-dasharray:none;stroke-opacity:1"
             id="rect5523"
             width="112.7445"
             height="115.98598"
             x="-61.616093"
             y="-51.481373"
             ry="6.6446209" />
        </path>
        <path
           style="fill:none;stroke:#42f6bf;stroke-width:4.1;stroke-linecap:butt;stroke-linejoin:miter;stroke-miterlimit:4;stroke-dasharray:none;stroke-opacity:1"
           d="m -36.951882,19.752851 v -33.914225 c 0,0 -0.68396,-8.753148 8.12357,-9.104845 8.67716,-0.34649 10.236938,8.064975 10.236938,8.064975"
           id="path578"
           sodipodi:nodetypes="ccsc" />
        <path
           style="fill:none;stroke:#42f6bf;stroke-width:4.1;stroke-linecap:butt;stroke-linejoin:miter;stroke-miterlimit:4;stroke-dasharray:none;stroke-opacity:1"
           d="m -23.018974,0.1511971 c 0,0 -4.45862,1.7476073 -4.45862,5.9862084 0,4.2385985 4.65383,5.3140055 4.65383,5.3140055 h 13.9940689 c 0,0 4.8428301,-0.0828 4.8428301,5.361027 0,5.443821 -4.8894523,5.136737 -4.8894523,5.136737 H -26.920279"
           id="path582" />
        <path
           id="path686"
           style="fill-opacity:0;fill-rule:evenodd;stroke:#42f6bf;stroke-width:4.1;stroke-miterlimit:4;stroke-dasharray:none;stroke-opacity:1"
           d="m -16.40417,-1.6905118 c -1.177336,-7.3177456 3.80045,-14.2043692 11.1181937,-15.3817042 7.317745,-1.177336 14.2043691,3.80045 15.3817043,11.1181946 1.177336,7.317745 -3.8004497,14.2043692 -11.1181947,15.3817043"
           sodipodi:nodetypes="cssc" />
        <path
           style="display:inline;fill:none;stroke:#42f6bf;stroke-width:4.1;stroke-linecap:butt;stroke-linejoin:miter;stroke-miterlimit:4;stroke-dasharray:none;stroke-opacity:1"
           d="M 9.7833418,-0.09955382 H 26.315442"
           id="path580-3" />
        <path
           style="display:inline;fill:none;stroke:#42f6bf;stroke-width:4.1;stroke-linecap:butt;stroke-linejoin:miter;stroke-miterlimit:4;stroke-dasharray:none;stroke-opacity:1"
           d="M 8.1785388,19.973929 V 3.4418283"
           id="path580-3-7" />
        <path
           id="path686-6"
           style="display:inline;fill-opacity:0;fill-rule:evenodd;stroke:#42f6bf;stroke-width:4.1;stroke-miterlimit:4;stroke-dasharray:none;stroke-opacity:1"
           d="m 19.795979,-8.4579315 c 2.7031,-6.9013595 10.489052,-10.3047215 17.390412,-7.6016215 6.901359,2.703099 10.304722,10.4890516 7.601622,17.3904107 C 42.084914,8.2322172 34.29896,11.63558 27.397601,8.9324796"
           sodipodi:nodetypes="cssc" />
        <path
           style="fill:none;stroke:#42f6bf;stroke-width:4.1;stroke-linecap:butt;stroke-linejoin:miter;stroke-miterlimit:4;stroke-dasharray:none;stroke-opacity:1"
           d="m 41.391187,-13.649348 c 0,0 0.954175,-7.870073 7.266739,-7.870073"
           id="path2891" />
        <path
           id="rect3128"
           style="fill-opacity:0;stroke:#42f6bf;stroke-width:4.1;stroke-miterlimit:4;stroke-dasharray:none;stroke-opacity:1"
           d="m 23.193114,17.376838 h 18.129805 c 4.042116,0 7.296239,3.254122 7.296239,7.296238 0,4.042116 -3.254123,7.296238 -7.296239,7.296238 H 23.193114 c -4.042116,0 -7.296239,-3.254122 -7.296239,-7.296238 0,-4.042116 3.254123,-7.296238 7.296239,-7.296238 z" />
      </g>
    </g>
  </g>
  <g
     inkscape:groupmode="layer"
     id="layer2"
     inkscape:label="Layer 3"
     style="display:none"
     sodipodi:insensitive="true">
    <path
       style="display:inline;fill:none;stroke:#000000;stroke-width:1.2;stroke-linecap:butt;stroke-linejoin:miter;stroke-miterlimit:4;stroke-dasharray:none;stroke-opacity:1"
       d="m -5.9122122,-40.081864 7.274805,4.912652 -7.299501,4.315979"
       id="path4717"
       sodipodi:nodetypes="ccc" />
    <path
       style="display:inline;fill:none;stroke:#000000;stroke-width:1.2;stroke-linecap:butt;stroke-linejoin:miter;stroke-miterlimit:4;stroke-dasharray:none;stroke-opacity:1"
       d="M 6.3231028,-35.162057 H 18.713513"
       id="path5253" />
    <path
       style="display:inline;fill:none;stroke:#000000;stroke-width:1.2;stroke-linecap:butt;stroke-linejoin:miter;stroke-miterlimit:4;stroke-dasharray:none;stroke-opacity:1"
       d="m 12.518313,-41.270862 v 12.390411"
       id="path5253-5" />
  </g>
</svg>
